<svg width="100" height="119" viewBox="0 0 100 119" fill="none" xmlns="http://www.w3.org/2000/svg">
<path fill-rule="evenodd" clip-rule="evenodd" d="M99.9847 80H100V79V0H1.52588e-05V78.9684C5.08688e-06 78.9789 0 78.9895 0 79C0 79.0105 5.08688e-06 79.0211 1.52588e-05 79.0316V80H0.0153199C0.678721 101.629 22.8036 119 50 119C77.1964 119 99.3213 101.629 99.9847 80ZM98.9841 80H99.9847C99.9949 79.6677 100 79.3343 100 79C100 56.9086 77.6142 39 50 39C22.3989 39 0.0213435 56.8915 1.52588e-05 78.9684V79.0316C0.000328 79.3553 0.00544755 79.6781 0.0153199 80H1.01592C1.68165 100.891 23.1456 118 50 118C76.8545 118 98.3184 100.891 98.9841 80ZM98.9841 80H1.01592C1.00533 79.6676 1 79.3343 1 79C1 57.6576 22.7183 40 50 40C77.2817 40 99 57.6576 99 79C99 79.3343 98.9947 79.6676 98.9841 80Z" fill="black"/>
</svg>
